<mxfile host="app.diagrams.net" modified="2023-06-07T10:55:23.947Z" agent="Mozilla/5.0 (Windows NT 10.0; Win64; x64) AppleWebKit/537.36 (KHTML, like Gecko) Chrome/113.0.0.0 Safari/537.36" etag="UUho5-eitvXTy5-TXHhJ" version="21.3.7" type="github">
  <diagram id="R2lEEEUBdFMjLlhIrx00" name="Page-1">
    <mxGraphModel dx="2748" dy="1098" grid="1" gridSize="10" guides="1" tooltips="1" connect="1" arrows="1" fold="1" page="1" pageScale="1" pageWidth="850" pageHeight="1100" math="0" shadow="0" extFonts="Permanent Marker^https://fonts.googleapis.com/css?family=Permanent+Marker">
      <root>
        <mxCell id="0" />
        <mxCell id="1" parent="0" />
        <mxCell id="W25wlZc22ALUk2tBiLoL-24" value="AccountsCountry" style="shape=table;startSize=40;container=1;collapsible=0;childLayout=tableLayout;fixedRows=1;rowLines=0;fontStyle=0;strokeColor=default;fontSize=16;" vertex="1" parent="1">
          <mxGeometry x="50" y="260" width="270" height="410" as="geometry" />
        </mxCell>
        <mxCell id="W25wlZc22ALUk2tBiLoL-25" value="" style="shape=tableRow;horizontal=0;startSize=0;swimlaneHead=0;swimlaneBody=0;top=0;left=0;bottom=0;right=0;collapsible=0;dropTarget=0;fillColor=none;points=[[0,0.5],[1,0.5]];portConstraint=eastwest;strokeColor=inherit;fontSize=16;" vertex="1" parent="W25wlZc22ALUk2tBiLoL-24">
          <mxGeometry y="40" width="270" height="110" as="geometry" />
        </mxCell>
        <mxCell id="W25wlZc22ALUk2tBiLoL-26" value="Primary Key" style="shape=partialRectangle;html=1;whiteSpace=wrap;connectable=0;fillColor=none;top=0;left=0;bottom=0;right=0;overflow=hidden;pointerEvents=1;strokeColor=inherit;fontSize=16;" vertex="1" parent="W25wlZc22ALUk2tBiLoL-25">
          <mxGeometry width="87" height="110" as="geometry">
            <mxRectangle width="87" height="110" as="alternateBounds" />
          </mxGeometry>
        </mxCell>
        <mxCell id="W25wlZc22ALUk2tBiLoL-27" value="Code" style="shape=partialRectangle;html=1;whiteSpace=wrap;connectable=0;fillColor=none;top=0;left=0;bottom=0;right=0;align=left;spacingLeft=6;overflow=hidden;strokeColor=inherit;fontSize=16;" vertex="1" parent="W25wlZc22ALUk2tBiLoL-25">
          <mxGeometry x="87" width="183" height="110" as="geometry">
            <mxRectangle width="183" height="110" as="alternateBounds" />
          </mxGeometry>
        </mxCell>
        <mxCell id="W25wlZc22ALUk2tBiLoL-28" value="" style="shape=tableRow;horizontal=0;startSize=0;swimlaneHead=0;swimlaneBody=0;top=0;left=0;bottom=0;right=0;collapsible=0;dropTarget=0;fillColor=none;points=[[0,0.5],[1,0.5]];portConstraint=eastwest;strokeColor=inherit;fontSize=16;" vertex="1" parent="W25wlZc22ALUk2tBiLoL-24">
          <mxGeometry y="150" width="270" height="50" as="geometry" />
        </mxCell>
        <mxCell id="W25wlZc22ALUk2tBiLoL-29" value="" style="shape=partialRectangle;html=1;whiteSpace=wrap;connectable=0;fillColor=none;top=0;left=0;bottom=0;right=0;overflow=hidden;strokeColor=inherit;fontSize=16;" vertex="1" parent="W25wlZc22ALUk2tBiLoL-28">
          <mxGeometry width="87" height="50" as="geometry">
            <mxRectangle width="87" height="50" as="alternateBounds" />
          </mxGeometry>
        </mxCell>
        <mxCell id="W25wlZc22ALUk2tBiLoL-30" value="Long Name" style="shape=partialRectangle;html=1;whiteSpace=wrap;connectable=0;fillColor=none;top=0;left=0;bottom=0;right=0;align=left;spacingLeft=6;overflow=hidden;strokeColor=inherit;fontSize=16;" vertex="1" parent="W25wlZc22ALUk2tBiLoL-28">
          <mxGeometry x="87" width="183" height="50" as="geometry">
            <mxRectangle width="183" height="50" as="alternateBounds" />
          </mxGeometry>
        </mxCell>
        <mxCell id="W25wlZc22ALUk2tBiLoL-31" value="" style="shape=tableRow;horizontal=0;startSize=0;swimlaneHead=0;swimlaneBody=0;top=0;left=0;bottom=0;right=0;collapsible=0;dropTarget=0;fillColor=none;points=[[0,0.5],[1,0.5]];portConstraint=eastwest;strokeColor=inherit;fontSize=16;" vertex="1" parent="W25wlZc22ALUk2tBiLoL-24">
          <mxGeometry y="200" width="270" height="70" as="geometry" />
        </mxCell>
        <mxCell id="W25wlZc22ALUk2tBiLoL-32" value="" style="shape=partialRectangle;html=1;whiteSpace=wrap;connectable=0;fillColor=none;top=0;left=0;bottom=0;right=0;overflow=hidden;strokeColor=inherit;fontSize=16;" vertex="1" parent="W25wlZc22ALUk2tBiLoL-31">
          <mxGeometry width="87" height="70" as="geometry">
            <mxRectangle width="87" height="70" as="alternateBounds" />
          </mxGeometry>
        </mxCell>
        <mxCell id="W25wlZc22ALUk2tBiLoL-33" value="Income Group" style="shape=partialRectangle;html=1;whiteSpace=wrap;connectable=0;fillColor=none;top=0;left=0;bottom=0;right=0;align=left;spacingLeft=6;overflow=hidden;strokeColor=inherit;fontSize=16;" vertex="1" parent="W25wlZc22ALUk2tBiLoL-31">
          <mxGeometry x="87" width="183" height="70" as="geometry">
            <mxRectangle width="183" height="70" as="alternateBounds" />
          </mxGeometry>
        </mxCell>
        <mxCell id="W25wlZc22ALUk2tBiLoL-71" style="shape=tableRow;horizontal=0;startSize=0;swimlaneHead=0;swimlaneBody=0;top=0;left=0;bottom=0;right=0;collapsible=0;dropTarget=0;fillColor=none;points=[[0,0.5],[1,0.5]];portConstraint=eastwest;strokeColor=inherit;fontSize=16;" vertex="1" parent="W25wlZc22ALUk2tBiLoL-24">
          <mxGeometry y="270" width="270" height="70" as="geometry" />
        </mxCell>
        <mxCell id="W25wlZc22ALUk2tBiLoL-72" value="" style="shape=partialRectangle;html=1;whiteSpace=wrap;connectable=0;fillColor=none;top=0;left=0;bottom=0;right=0;overflow=hidden;strokeColor=inherit;fontSize=16;" vertex="1" parent="W25wlZc22ALUk2tBiLoL-71">
          <mxGeometry width="87" height="70" as="geometry">
            <mxRectangle width="87" height="70" as="alternateBounds" />
          </mxGeometry>
        </mxCell>
        <mxCell id="W25wlZc22ALUk2tBiLoL-73" value="Region" style="shape=partialRectangle;html=1;whiteSpace=wrap;connectable=0;fillColor=none;top=0;left=0;bottom=0;right=0;align=left;spacingLeft=6;overflow=hidden;strokeColor=inherit;fontSize=16;" vertex="1" parent="W25wlZc22ALUk2tBiLoL-71">
          <mxGeometry x="87" width="183" height="70" as="geometry">
            <mxRectangle width="183" height="70" as="alternateBounds" />
          </mxGeometry>
        </mxCell>
        <mxCell id="W25wlZc22ALUk2tBiLoL-74" style="shape=tableRow;horizontal=0;startSize=0;swimlaneHead=0;swimlaneBody=0;top=0;left=0;bottom=0;right=0;collapsible=0;dropTarget=0;fillColor=none;points=[[0,0.5],[1,0.5]];portConstraint=eastwest;strokeColor=inherit;fontSize=16;" vertex="1" parent="W25wlZc22ALUk2tBiLoL-24">
          <mxGeometry y="340" width="270" height="70" as="geometry" />
        </mxCell>
        <mxCell id="W25wlZc22ALUk2tBiLoL-75" style="shape=partialRectangle;html=1;whiteSpace=wrap;connectable=0;fillColor=none;top=0;left=0;bottom=0;right=0;overflow=hidden;strokeColor=inherit;fontSize=16;" vertex="1" parent="W25wlZc22ALUk2tBiLoL-74">
          <mxGeometry width="87" height="70" as="geometry">
            <mxRectangle width="87" height="70" as="alternateBounds" />
          </mxGeometry>
        </mxCell>
        <mxCell id="W25wlZc22ALUk2tBiLoL-76" value="Currency Unit" style="shape=partialRectangle;html=1;whiteSpace=wrap;connectable=0;fillColor=none;top=0;left=0;bottom=0;right=0;align=left;spacingLeft=6;overflow=hidden;strokeColor=inherit;fontSize=16;" vertex="1" parent="W25wlZc22ALUk2tBiLoL-74">
          <mxGeometry x="87" width="183" height="70" as="geometry">
            <mxRectangle width="183" height="70" as="alternateBounds" />
          </mxGeometry>
        </mxCell>
        <mxCell id="W25wlZc22ALUk2tBiLoL-49" value="AccountData" style="shape=table;startSize=30;container=1;collapsible=0;childLayout=tableLayout;fixedRows=1;rowLines=0;fontStyle=0;strokeColor=default;fontSize=16;" vertex="1" parent="1">
          <mxGeometry x="400" y="270" width="280" height="480" as="geometry" />
        </mxCell>
        <mxCell id="W25wlZc22ALUk2tBiLoL-50" value="" style="shape=tableRow;horizontal=0;startSize=0;swimlaneHead=0;swimlaneBody=0;top=0;left=0;bottom=0;right=0;collapsible=0;dropTarget=0;fillColor=none;points=[[0,0.5],[1,0.5]];portConstraint=eastwest;strokeColor=inherit;fontSize=16;" vertex="1" parent="W25wlZc22ALUk2tBiLoL-49">
          <mxGeometry y="30" width="280" height="110" as="geometry" />
        </mxCell>
        <mxCell id="W25wlZc22ALUk2tBiLoL-51" value="" style="shape=partialRectangle;html=1;whiteSpace=wrap;connectable=0;fillColor=none;top=0;left=0;bottom=0;right=0;overflow=hidden;pointerEvents=1;strokeColor=inherit;fontSize=16;" vertex="1" parent="W25wlZc22ALUk2tBiLoL-50">
          <mxGeometry width="90" height="110" as="geometry">
            <mxRectangle width="90" height="110" as="alternateBounds" />
          </mxGeometry>
        </mxCell>
        <mxCell id="W25wlZc22ALUk2tBiLoL-52" value="Country Name" style="shape=partialRectangle;html=1;whiteSpace=wrap;connectable=0;fillColor=none;top=0;left=0;bottom=0;right=0;align=left;spacingLeft=6;overflow=hidden;strokeColor=inherit;fontSize=16;" vertex="1" parent="W25wlZc22ALUk2tBiLoL-50">
          <mxGeometry x="90" width="190" height="110" as="geometry">
            <mxRectangle width="190" height="110" as="alternateBounds" />
          </mxGeometry>
        </mxCell>
        <mxCell id="W25wlZc22ALUk2tBiLoL-53" value="" style="shape=tableRow;horizontal=0;startSize=0;swimlaneHead=0;swimlaneBody=0;top=0;left=0;bottom=0;right=0;collapsible=0;dropTarget=0;fillColor=none;points=[[0,0.5],[1,0.5]];portConstraint=eastwest;strokeColor=inherit;fontSize=16;" vertex="1" parent="W25wlZc22ALUk2tBiLoL-49">
          <mxGeometry y="140" width="280" height="50" as="geometry" />
        </mxCell>
        <mxCell id="W25wlZc22ALUk2tBiLoL-54" value="" style="shape=partialRectangle;html=1;whiteSpace=wrap;connectable=0;fillColor=none;top=0;left=0;bottom=0;right=0;overflow=hidden;strokeColor=inherit;fontSize=16;" vertex="1" parent="W25wlZc22ALUk2tBiLoL-53">
          <mxGeometry width="90" height="50" as="geometry">
            <mxRectangle width="90" height="50" as="alternateBounds" />
          </mxGeometry>
        </mxCell>
        <mxCell id="W25wlZc22ALUk2tBiLoL-55" value="Country Code" style="shape=partialRectangle;html=1;whiteSpace=wrap;connectable=0;fillColor=none;top=0;left=0;bottom=0;right=0;align=left;spacingLeft=6;overflow=hidden;strokeColor=inherit;fontSize=16;" vertex="1" parent="W25wlZc22ALUk2tBiLoL-53">
          <mxGeometry x="90" width="190" height="50" as="geometry">
            <mxRectangle width="190" height="50" as="alternateBounds" />
          </mxGeometry>
        </mxCell>
        <mxCell id="W25wlZc22ALUk2tBiLoL-56" value="" style="shape=tableRow;horizontal=0;startSize=0;swimlaneHead=0;swimlaneBody=0;top=0;left=0;bottom=0;right=0;collapsible=0;dropTarget=0;fillColor=none;points=[[0,0.5],[1,0.5]];portConstraint=eastwest;strokeColor=inherit;fontSize=16;" vertex="1" parent="W25wlZc22ALUk2tBiLoL-49">
          <mxGeometry y="190" width="280" height="70" as="geometry" />
        </mxCell>
        <mxCell id="W25wlZc22ALUk2tBiLoL-57" value="" style="shape=partialRectangle;html=1;whiteSpace=wrap;connectable=0;fillColor=none;top=0;left=0;bottom=0;right=0;overflow=hidden;strokeColor=inherit;fontSize=16;" vertex="1" parent="W25wlZc22ALUk2tBiLoL-56">
          <mxGeometry width="90" height="70" as="geometry">
            <mxRectangle width="90" height="70" as="alternateBounds" />
          </mxGeometry>
        </mxCell>
        <mxCell id="W25wlZc22ALUk2tBiLoL-58" value="Series Name" style="shape=partialRectangle;html=1;whiteSpace=wrap;connectable=0;fillColor=none;top=0;left=0;bottom=0;right=0;align=left;spacingLeft=6;overflow=hidden;strokeColor=inherit;fontSize=16;" vertex="1" parent="W25wlZc22ALUk2tBiLoL-56">
          <mxGeometry x="90" width="190" height="70" as="geometry">
            <mxRectangle width="190" height="70" as="alternateBounds" />
          </mxGeometry>
        </mxCell>
        <mxCell id="W25wlZc22ALUk2tBiLoL-77" style="shape=tableRow;horizontal=0;startSize=0;swimlaneHead=0;swimlaneBody=0;top=0;left=0;bottom=0;right=0;collapsible=0;dropTarget=0;fillColor=none;points=[[0,0.5],[1,0.5]];portConstraint=eastwest;strokeColor=inherit;fontSize=16;" vertex="1" parent="W25wlZc22ALUk2tBiLoL-49">
          <mxGeometry y="260" width="280" height="70" as="geometry" />
        </mxCell>
        <mxCell id="W25wlZc22ALUk2tBiLoL-78" style="shape=partialRectangle;html=1;whiteSpace=wrap;connectable=0;fillColor=none;top=0;left=0;bottom=0;right=0;overflow=hidden;strokeColor=inherit;fontSize=16;" vertex="1" parent="W25wlZc22ALUk2tBiLoL-77">
          <mxGeometry width="90" height="70" as="geometry">
            <mxRectangle width="90" height="70" as="alternateBounds" />
          </mxGeometry>
        </mxCell>
        <mxCell id="W25wlZc22ALUk2tBiLoL-79" value="Series Code" style="shape=partialRectangle;html=1;whiteSpace=wrap;connectable=0;fillColor=none;top=0;left=0;bottom=0;right=0;align=left;spacingLeft=6;overflow=hidden;strokeColor=inherit;fontSize=16;" vertex="1" parent="W25wlZc22ALUk2tBiLoL-77">
          <mxGeometry x="90" width="190" height="70" as="geometry">
            <mxRectangle width="190" height="70" as="alternateBounds" />
          </mxGeometry>
        </mxCell>
        <mxCell id="W25wlZc22ALUk2tBiLoL-80" style="shape=tableRow;horizontal=0;startSize=0;swimlaneHead=0;swimlaneBody=0;top=0;left=0;bottom=0;right=0;collapsible=0;dropTarget=0;fillColor=none;points=[[0,0.5],[1,0.5]];portConstraint=eastwest;strokeColor=inherit;fontSize=16;" vertex="1" parent="W25wlZc22ALUk2tBiLoL-49">
          <mxGeometry y="330" width="280" height="70" as="geometry" />
        </mxCell>
        <mxCell id="W25wlZc22ALUk2tBiLoL-81" style="shape=partialRectangle;html=1;whiteSpace=wrap;connectable=0;fillColor=none;top=0;left=0;bottom=0;right=0;overflow=hidden;strokeColor=inherit;fontSize=16;" vertex="1" parent="W25wlZc22ALUk2tBiLoL-80">
          <mxGeometry width="90" height="70" as="geometry">
            <mxRectangle width="90" height="70" as="alternateBounds" />
          </mxGeometry>
        </mxCell>
        <mxCell id="W25wlZc22ALUk2tBiLoL-82" value="1995[YR1995]" style="shape=partialRectangle;html=1;whiteSpace=wrap;connectable=0;fillColor=none;top=0;left=0;bottom=0;right=0;align=left;spacingLeft=6;overflow=hidden;strokeColor=inherit;fontSize=16;" vertex="1" parent="W25wlZc22ALUk2tBiLoL-80">
          <mxGeometry x="90" width="190" height="70" as="geometry">
            <mxRectangle width="190" height="70" as="alternateBounds" />
          </mxGeometry>
        </mxCell>
        <mxCell id="W25wlZc22ALUk2tBiLoL-83" style="shape=tableRow;horizontal=0;startSize=0;swimlaneHead=0;swimlaneBody=0;top=0;left=0;bottom=0;right=0;collapsible=0;dropTarget=0;fillColor=none;points=[[0,0.5],[1,0.5]];portConstraint=eastwest;strokeColor=inherit;fontSize=16;" vertex="1" parent="W25wlZc22ALUk2tBiLoL-49">
          <mxGeometry y="400" width="280" height="70" as="geometry" />
        </mxCell>
        <mxCell id="W25wlZc22ALUk2tBiLoL-84" style="shape=partialRectangle;html=1;whiteSpace=wrap;connectable=0;fillColor=none;top=0;left=0;bottom=0;right=0;overflow=hidden;strokeColor=inherit;fontSize=16;" vertex="1" parent="W25wlZc22ALUk2tBiLoL-83">
          <mxGeometry width="90" height="70" as="geometry">
            <mxRectangle width="90" height="70" as="alternateBounds" />
          </mxGeometry>
        </mxCell>
        <mxCell id="W25wlZc22ALUk2tBiLoL-85" value="1996[YR1996]" style="shape=partialRectangle;html=1;whiteSpace=wrap;connectable=0;fillColor=none;top=0;left=0;bottom=0;right=0;align=left;spacingLeft=6;overflow=hidden;strokeColor=inherit;fontSize=16;" vertex="1" parent="W25wlZc22ALUk2tBiLoL-83">
          <mxGeometry x="90" width="190" height="70" as="geometry">
            <mxRectangle width="190" height="70" as="alternateBounds" />
          </mxGeometry>
        </mxCell>
        <mxCell id="W25wlZc22ALUk2tBiLoL-59" value="AccountSeries" style="shape=table;startSize=40;container=1;collapsible=0;childLayout=tableLayout;fixedRows=1;rowLines=0;fontStyle=0;strokeColor=default;fontSize=16;" vertex="1" parent="1">
          <mxGeometry x="60" y="760" width="280" height="410" as="geometry" />
        </mxCell>
        <mxCell id="W25wlZc22ALUk2tBiLoL-60" value="" style="shape=tableRow;horizontal=0;startSize=0;swimlaneHead=0;swimlaneBody=0;top=0;left=0;bottom=0;right=0;collapsible=0;dropTarget=0;fillColor=none;points=[[0,0.5],[1,0.5]];portConstraint=eastwest;strokeColor=inherit;fontSize=16;" vertex="1" parent="W25wlZc22ALUk2tBiLoL-59">
          <mxGeometry y="40" width="280" height="110" as="geometry" />
        </mxCell>
        <mxCell id="W25wlZc22ALUk2tBiLoL-61" value="" style="shape=partialRectangle;html=1;whiteSpace=wrap;connectable=0;fillColor=none;top=0;left=0;bottom=0;right=0;overflow=hidden;pointerEvents=1;strokeColor=inherit;fontSize=16;" vertex="1" parent="W25wlZc22ALUk2tBiLoL-60">
          <mxGeometry width="90" height="110" as="geometry">
            <mxRectangle width="90" height="110" as="alternateBounds" />
          </mxGeometry>
        </mxCell>
        <mxCell id="W25wlZc22ALUk2tBiLoL-62" value="Code" style="shape=partialRectangle;html=1;whiteSpace=wrap;connectable=0;fillColor=none;top=0;left=0;bottom=0;right=0;align=left;spacingLeft=6;overflow=hidden;strokeColor=inherit;fontSize=16;" vertex="1" parent="W25wlZc22ALUk2tBiLoL-60">
          <mxGeometry x="90" width="190" height="110" as="geometry">
            <mxRectangle width="190" height="110" as="alternateBounds" />
          </mxGeometry>
        </mxCell>
        <mxCell id="W25wlZc22ALUk2tBiLoL-63" value="" style="shape=tableRow;horizontal=0;startSize=0;swimlaneHead=0;swimlaneBody=0;top=0;left=0;bottom=0;right=0;collapsible=0;dropTarget=0;fillColor=none;points=[[0,0.5],[1,0.5]];portConstraint=eastwest;strokeColor=inherit;fontSize=16;" vertex="1" parent="W25wlZc22ALUk2tBiLoL-59">
          <mxGeometry y="150" width="280" height="50" as="geometry" />
        </mxCell>
        <mxCell id="W25wlZc22ALUk2tBiLoL-64" value="" style="shape=partialRectangle;html=1;whiteSpace=wrap;connectable=0;fillColor=none;top=0;left=0;bottom=0;right=0;overflow=hidden;strokeColor=inherit;fontSize=16;" vertex="1" parent="W25wlZc22ALUk2tBiLoL-63">
          <mxGeometry width="90" height="50" as="geometry">
            <mxRectangle width="90" height="50" as="alternateBounds" />
          </mxGeometry>
        </mxCell>
        <mxCell id="W25wlZc22ALUk2tBiLoL-65" value="Indicator Name" style="shape=partialRectangle;html=1;whiteSpace=wrap;connectable=0;fillColor=none;top=0;left=0;bottom=0;right=0;align=left;spacingLeft=6;overflow=hidden;strokeColor=inherit;fontSize=16;" vertex="1" parent="W25wlZc22ALUk2tBiLoL-63">
          <mxGeometry x="90" width="190" height="50" as="geometry">
            <mxRectangle width="190" height="50" as="alternateBounds" />
          </mxGeometry>
        </mxCell>
        <mxCell id="W25wlZc22ALUk2tBiLoL-66" value="" style="shape=tableRow;horizontal=0;startSize=0;swimlaneHead=0;swimlaneBody=0;top=0;left=0;bottom=0;right=0;collapsible=0;dropTarget=0;fillColor=none;points=[[0,0.5],[1,0.5]];portConstraint=eastwest;strokeColor=inherit;fontSize=16;" vertex="1" parent="W25wlZc22ALUk2tBiLoL-59">
          <mxGeometry y="200" width="280" height="70" as="geometry" />
        </mxCell>
        <mxCell id="W25wlZc22ALUk2tBiLoL-67" value="" style="shape=partialRectangle;html=1;whiteSpace=wrap;connectable=0;fillColor=none;top=0;left=0;bottom=0;right=0;overflow=hidden;strokeColor=inherit;fontSize=16;" vertex="1" parent="W25wlZc22ALUk2tBiLoL-66">
          <mxGeometry width="90" height="70" as="geometry">
            <mxRectangle width="90" height="70" as="alternateBounds" />
          </mxGeometry>
        </mxCell>
        <mxCell id="W25wlZc22ALUk2tBiLoL-68" value="Long Definition" style="shape=partialRectangle;html=1;whiteSpace=wrap;connectable=0;fillColor=none;top=0;left=0;bottom=0;right=0;align=left;spacingLeft=6;overflow=hidden;strokeColor=inherit;fontSize=16;" vertex="1" parent="W25wlZc22ALUk2tBiLoL-66">
          <mxGeometry x="90" width="190" height="70" as="geometry">
            <mxRectangle width="190" height="70" as="alternateBounds" />
          </mxGeometry>
        </mxCell>
        <mxCell id="W25wlZc22ALUk2tBiLoL-86" style="shape=tableRow;horizontal=0;startSize=0;swimlaneHead=0;swimlaneBody=0;top=0;left=0;bottom=0;right=0;collapsible=0;dropTarget=0;fillColor=none;points=[[0,0.5],[1,0.5]];portConstraint=eastwest;strokeColor=inherit;fontSize=16;" vertex="1" parent="W25wlZc22ALUk2tBiLoL-59">
          <mxGeometry y="270" width="280" height="70" as="geometry" />
        </mxCell>
        <mxCell id="W25wlZc22ALUk2tBiLoL-87" style="shape=partialRectangle;html=1;whiteSpace=wrap;connectable=0;fillColor=none;top=0;left=0;bottom=0;right=0;overflow=hidden;strokeColor=inherit;fontSize=16;" vertex="1" parent="W25wlZc22ALUk2tBiLoL-86">
          <mxGeometry width="90" height="70" as="geometry">
            <mxRectangle width="90" height="70" as="alternateBounds" />
          </mxGeometry>
        </mxCell>
        <mxCell id="W25wlZc22ALUk2tBiLoL-88" value="Source" style="shape=partialRectangle;html=1;whiteSpace=wrap;connectable=0;fillColor=none;top=0;left=0;bottom=0;right=0;align=left;spacingLeft=6;overflow=hidden;strokeColor=inherit;fontSize=16;" vertex="1" parent="W25wlZc22ALUk2tBiLoL-86">
          <mxGeometry x="90" width="190" height="70" as="geometry">
            <mxRectangle width="190" height="70" as="alternateBounds" />
          </mxGeometry>
        </mxCell>
        <mxCell id="W25wlZc22ALUk2tBiLoL-89" style="shape=tableRow;horizontal=0;startSize=0;swimlaneHead=0;swimlaneBody=0;top=0;left=0;bottom=0;right=0;collapsible=0;dropTarget=0;fillColor=none;points=[[0,0.5],[1,0.5]];portConstraint=eastwest;strokeColor=inherit;fontSize=16;" vertex="1" parent="W25wlZc22ALUk2tBiLoL-59">
          <mxGeometry y="340" width="280" height="70" as="geometry" />
        </mxCell>
        <mxCell id="W25wlZc22ALUk2tBiLoL-90" style="shape=partialRectangle;html=1;whiteSpace=wrap;connectable=0;fillColor=none;top=0;left=0;bottom=0;right=0;overflow=hidden;strokeColor=inherit;fontSize=16;" vertex="1" parent="W25wlZc22ALUk2tBiLoL-89">
          <mxGeometry width="90" height="70" as="geometry">
            <mxRectangle width="90" height="70" as="alternateBounds" />
          </mxGeometry>
        </mxCell>
        <mxCell id="W25wlZc22ALUk2tBiLoL-91" value="Topic" style="shape=partialRectangle;html=1;whiteSpace=wrap;connectable=0;fillColor=none;top=0;left=0;bottom=0;right=0;align=left;spacingLeft=6;overflow=hidden;strokeColor=inherit;fontSize=16;" vertex="1" parent="W25wlZc22ALUk2tBiLoL-89">
          <mxGeometry x="90" width="190" height="70" as="geometry">
            <mxRectangle width="190" height="70" as="alternateBounds" />
          </mxGeometry>
        </mxCell>
        <mxCell id="W25wlZc22ALUk2tBiLoL-92" style="edgeStyle=orthogonalEdgeStyle;rounded=0;orthogonalLoop=1;jettySize=auto;html=1;entryX=0.01;entryY=0.333;entryDx=0;entryDy=0;entryPerimeter=0;" edge="1" parent="1" source="W25wlZc22ALUk2tBiLoL-25" target="W25wlZc22ALUk2tBiLoL-53">
          <mxGeometry relative="1" as="geometry" />
        </mxCell>
        <mxCell id="W25wlZc22ALUk2tBiLoL-96" style="edgeStyle=orthogonalEdgeStyle;rounded=0;orthogonalLoop=1;jettySize=auto;html=1;exitX=1;exitY=0.5;exitDx=0;exitDy=0;entryX=1.002;entryY=0.59;entryDx=0;entryDy=0;entryPerimeter=0;" edge="1" parent="1" source="W25wlZc22ALUk2tBiLoL-53" target="W25wlZc22ALUk2tBiLoL-60">
          <mxGeometry relative="1" as="geometry">
            <mxPoint x="750" y="880" as="targetPoint" />
          </mxGeometry>
        </mxCell>
      </root>
    </mxGraphModel>
  </diagram>
</mxfile>
